<svg xmlns="http://www.w3.org/2000/svg" width="100" height="160" viewBox="0 0 100 160" style="overflow:visible;">
  <circle cx="8" cy="14" r="1.2" fill="#a58a5c" opacity="0.8"></circle>
  <circle cx="16" cy="30" r="0.7" fill="#d8d2c4" opacity="0.5"></circle>
  <circle cx="4" cy="52" r="0.9" fill="#c8c0b0" opacity="0.45"></circle>
  <circle cx="92" cy="10" r="1.0" fill="#d8d2c4" opacity="0.6"></circle>
  <circle cx="88" cy="28" r="0.7" fill="#a58a5c" opacity="0.7"></circle>
  <circle cx="76" cy="18" r="0.9" fill="#a58a5c" opacity="0.5"></circle>
  <circle cx="50" cy="4" r="0.7" fill="#d8d2c4" opacity="0.4"></circle>
  <circle cx="12" cy="70" r="0.6" fill="#a58a5c" opacity="0.4"></circle>
  <circle cx="84" cy="68" r="0.6" fill="#d8d2c4" opacity="0.35"></circle>
  <path d="M28,143 C22,135 10,128 8,118 C6,108 14,102 18,108 C22,114 16,120 12,118" fill="none" stroke="#4a6a58" stroke-width="0.9" stroke-linecap="round" opacity="0.7"></path>
  <path d="M12,118 C10,116 11,113 14,114" fill="none" stroke="#4a6a58" stroke-width="0.7" stroke-linecap="round" opacity="0.6"></path>
  <path d="M15,124 C10,120 9,114 13,115" fill="none" stroke="#4a6a58" stroke-width="0.55" stroke-linecap="round" opacity="0.5"></path>
  <path d="M72,143 C78,135 90,128 92,118 C94,108 86,102 82,108 C78,114 84,120 88,118" fill="none" stroke="#4a6a58" stroke-width="0.9" stroke-linecap="round" opacity="0.7"></path>
  <path d="M88,118 C90,116 89,113 86,114" fill="none" stroke="#4a6a58" stroke-width="0.7" stroke-linecap="round" opacity="0.6"></path>
  <path d="M85,124 C90,120 91,114 87,115" fill="none" stroke="#4a6a58" stroke-width="0.55" stroke-linecap="round" opacity="0.5"></path>
  <path d="M37,120 C32,112 30,100 34,92 C36,88 38,90 37,94 C36,98 33,96 34,92" fill="none" stroke="#4a6a58" stroke-width="0.6" stroke-linecap="round" opacity="0.45"></path>
  <rect x="14" y="145" width="72" height="5" rx="2.5" fill="none" stroke="#5a6a62" stroke-width="0.6" opacity="0.5"></rect>
  <rect x="22" y="139" width="56" height="6" rx="2" fill="none" stroke="#5a6a62" stroke-width="0.5" opacity="0.4"></rect>
  <rect x="12" y="104" width="16" height="35" rx="2" fill="none" stroke="#5a6a62" stroke-width="0.65"></rect>
  <rect x="16" y="112" width="8" height="13" rx="4" fill="#a58a5c" opacity="0.4"></rect>
  <rect x="10" y="97" width="20" height="7" rx="1.5" fill="none" stroke="#5a6a62" stroke-width="0.55" opacity="0.75"></rect>
  <rect x="11" y="91" width="4" height="7" rx="1" fill="none" stroke="#5a6a62" stroke-width="0.5" opacity="0.55"></rect>
  <rect x="18" y="91" width="4" height="7" rx="1" fill="none" stroke="#5a6a62" stroke-width="0.5" opacity="0.55"></rect>
  <rect x="25" y="91" width="4" height="7" rx="1" fill="none" stroke="#5a6a62" stroke-width="0.5" opacity="0.55"></rect>
  <rect x="16" y="72" width="8" height="20" rx="1.5" fill="none" stroke="#8a9f98" stroke-width="0.55"></rect>
  <rect x="18" y="77" width="4" height="8" rx="2" fill="#a58a5c" opacity="0.35"></rect>
  <polygon points="20,48 15,72 25,72" fill="none" stroke="#c8c0b0" stroke-width="0.7"></polygon>
  <circle cx="20" cy="48" r="2" fill="#a58a5c" opacity="0.75"></circle>
  <circle cx="20" cy="48" r="0.8" fill="#fff" opacity="0.7"></circle>
  <rect x="72" y="104" width="16" height="35" rx="2" fill="none" stroke="#5a6a62" stroke-width="0.65"></rect>
  <rect x="76" y="112" width="8" height="13" rx="4" fill="#a58a5c" opacity="0.4"></rect>
  <rect x="70" y="97" width="20" height="7" rx="1.5" fill="none" stroke="#5a6a62" stroke-width="0.55" opacity="0.75"></rect>
  <rect x="71" y="91" width="4" height="7" rx="1" fill="none" stroke="#5a6a62" stroke-width="0.5" opacity="0.55"></rect>
  <rect x="78" y="91" width="4" height="7" rx="1" fill="none" stroke="#5a6a62" stroke-width="0.5" opacity="0.55"></rect>
  <rect x="85" y="91" width="4" height="7" rx="1" fill="none" stroke="#5a6a62" stroke-width="0.5" opacity="0.55"></rect>
  <rect x="76" y="72" width="8" height="20" rx="1.5" fill="none" stroke="#8a9f98" stroke-width="0.55"></rect>
  <rect x="78" y="77" width="4" height="8" rx="2" fill="#a58a5c" opacity="0.35"></rect>
  <polygon points="80,48 75,72 85,72" fill="none" stroke="#c8c0b0" stroke-width="0.7"></polygon>
  <circle cx="80" cy="48" r="2" fill="#a58a5c" opacity="0.75"></circle>
  <circle cx="80" cy="48" r="0.8" fill="#fff" opacity="0.7"></circle>
  <rect x="37" y="88" width="26" height="51" rx="2.5" fill="none" stroke="#d8d2c4" stroke-width="0.9"></rect>
  <rect x="43" y="96" width="14" height="20" rx="7" fill="#a58a5c" opacity="0.6"></rect>
  <rect x="44" y="122" width="12" height="12" rx="6" fill="#a58a5c" opacity="0.3"></rect>
  <rect x="33" y="80" width="34" height="8" rx="2" fill="none" stroke="#d8d2c4" stroke-width="0.8" opacity="0.85"></rect>
  <rect x="34" y="72" width="5" height="9" rx="1.5" fill="none" stroke="#d8d2c4" stroke-width="0.65" opacity="0.7"></rect>
  <rect x="42" y="72" width="5" height="9" rx="1.5" fill="none" stroke="#d8d2c4" stroke-width="0.65" opacity="0.7"></rect>
  <rect x="50" y="72" width="5" height="9" rx="1.5" fill="none" stroke="#d8d2c4" stroke-width="0.65" opacity="0.7"></rect>
  <rect x="58" y="72" width="5" height="9" rx="1.5" fill="none" stroke="#d8d2c4" stroke-width="0.65" opacity="0.7"></rect>
  <rect x="66" y="72" width="5" height="9" rx="1.5" fill="none" stroke="#d8d2c4" stroke-width="0.65" opacity="0.7"></rect>
  <rect x="42" y="48" width="16" height="26" rx="2" fill="none" stroke="#d8d2c4" stroke-width="0.75"></rect>
  <rect x="46" y="55" width="8" height="12" rx="4" fill="#a58a5c" opacity="0.75"></rect>
  <polygon points="50,10 44,48 56,48" fill="none" stroke="#d8d2c4" stroke-width="0.85"></polygon>
  <circle cx="50" cy="10" r="3.2" fill="#a58a5c"></circle>
  <circle cx="50" cy="10" r="1.5" fill="#fff" opacity="0.95"></circle>
  <path d="M50,6 L51.2,9.5 L50,13 L48.8,9.5 Z" fill="#fff" opacity="0.5"></path>
  <path d="M46.5,10 L50,8.8 L53.5,10 L50,11.2 Z" fill="#fff" opacity="0.5"></path>
  <line x1="28" y1="132" x2="37" y2="132" stroke="#5a7a70" stroke-width="0.5" opacity="0.4"></line>
  <line x1="63" y1="132" x2="72" y2="132" stroke="#5a7a70" stroke-width="0.5" opacity="0.4"></line>
</svg>